<mxfile host="app.diagrams.net" modified="2024-04-01T08:09:32.409Z" agent="Mozilla/5.0 (X11; Linux x86_64) AppleWebKit/537.36 (KHTML, like Gecko) Chrome/123.0.0.0 Safari/537.36" etag="76cqhyITXUbrMy93ZJLf" version="24.0.7" type="device">
  <diagram name="Page-1" id="_b2nmrG2vHc_DjDJzXsM">
    <mxGraphModel dx="9545" dy="3502" grid="0" gridSize="10" guides="1" tooltips="1" connect="1" arrows="1" fold="1" page="0" pageScale="1" pageWidth="827" pageHeight="1169" math="0" shadow="0">
      <root>
        <mxCell id="0" />
        <mxCell id="1" parent="0" />
        <mxCell id="KuhgU3IhYk45CycPE0S7-40" value="" style="rounded=1;whiteSpace=wrap;html=1;fontStyle=1;fontSize=16;" vertex="1" parent="1">
          <mxGeometry x="-6075" y="-1607" width="413" height="700" as="geometry" />
        </mxCell>
        <mxCell id="KuhgU3IhYk45CycPE0S7-28" value="" style="rounded=1;whiteSpace=wrap;html=1;fontStyle=1;fontSize=16;" vertex="1" parent="1">
          <mxGeometry x="-6464" y="-540" width="1194" height="283" as="geometry" />
        </mxCell>
        <mxCell id="gFL0c8bG95cmB_gJQM2E-15" style="edgeStyle=orthogonalEdgeStyle;rounded=0;orthogonalLoop=1;jettySize=auto;html=1;" parent="1" source="gFL0c8bG95cmB_gJQM2E-13" target="gFL0c8bG95cmB_gJQM2E-2" edge="1">
          <mxGeometry relative="1" as="geometry" />
        </mxCell>
        <mxCell id="gFL0c8bG95cmB_gJQM2E-13" value="Autosserviços" style="rounded=1;whiteSpace=wrap;html=1;fillColor=#76608a;strokeColor=#432D57;fontStyle=1;fontColor=#ffffff;" parent="1" vertex="1">
          <mxGeometry x="-428" y="-181" width="291" height="337" as="geometry" />
        </mxCell>
        <mxCell id="gFL0c8bG95cmB_gJQM2E-22" style="edgeStyle=orthogonalEdgeStyle;rounded=0;orthogonalLoop=1;jettySize=auto;html=1;dashed=1;dashPattern=8 8;endArrow=none;endFill=0;" parent="1" source="gFL0c8bG95cmB_gJQM2E-2" edge="1">
          <mxGeometry relative="1" as="geometry">
            <mxPoint x="343.85489654541016" y="-12.5" as="targetPoint" />
          </mxGeometry>
        </mxCell>
        <mxCell id="gFL0c8bG95cmB_gJQM2E-2" value="Portal API" style="rounded=1;whiteSpace=wrap;html=1;fillColor=#e1d5e7;strokeColor=#9673a6;fontStyle=1" parent="1" vertex="1">
          <mxGeometry x="18" y="-42.5" width="180" height="60" as="geometry" />
        </mxCell>
        <mxCell id="gFL0c8bG95cmB_gJQM2E-21" style="edgeStyle=orthogonalEdgeStyle;rounded=0;orthogonalLoop=1;jettySize=auto;html=1;" parent="1" source="gFL0c8bG95cmB_gJQM2E-4" target="gFL0c8bG95cmB_gJQM2E-17" edge="1">
          <mxGeometry relative="1" as="geometry" />
        </mxCell>
        <mxCell id="gFL0c8bG95cmB_gJQM2E-4" value="Microfrontends" style="rounded=1;whiteSpace=wrap;html=1;fillColor=#dae8fc;strokeColor=#6c8ebf;fontStyle=1;" parent="1" vertex="1">
          <mxGeometry x="-372" y="61" width="180" height="60" as="geometry" />
        </mxCell>
        <mxCell id="gFL0c8bG95cmB_gJQM2E-5" value="Autosserviços" style="rounded=1;whiteSpace=wrap;html=1;fillColor=#d5e8d4;strokeColor=#82b366;fontStyle=1" parent="1" vertex="1">
          <mxGeometry x="-372" y="-98" width="180" height="60" as="geometry" />
        </mxCell>
        <mxCell id="gFL0c8bG95cmB_gJQM2E-6" value="Plataforma OAS" style="rounded=1;whiteSpace=wrap;html=1;fillColor=#ffe6cc;strokeColor=#d79b00;fontStyle=1;" parent="1" vertex="1">
          <mxGeometry x="-372" y="-18" width="180" height="60" as="geometry" />
        </mxCell>
        <mxCell id="gFL0c8bG95cmB_gJQM2E-14" value="Plataforma OAS" style="text;html=1;align=center;verticalAlign=middle;whiteSpace=wrap;rounded=0;fontStyle=1;fontSize=16;fontColor=#FFFFFF;" parent="1" vertex="1">
          <mxGeometry x="-360" y="-153" width="160" height="30" as="geometry" />
        </mxCell>
        <mxCell id="gFL0c8bG95cmB_gJQM2E-17" value="Serviços Externos" style="rounded=1;whiteSpace=wrap;html=1;fillColor=#e3c800;strokeColor=#B09500;fontStyle=1;fontColor=#000000;" parent="1" vertex="1">
          <mxGeometry x="-372.5" y="259" width="180" height="60" as="geometry" />
        </mxCell>
        <mxCell id="KuhgU3IhYk45CycPE0S7-14" value="react" style="rounded=1;whiteSpace=wrap;html=1;fillColor=#a0522d;fontSize=16;fontStyle=1;strokeWidth=4;strokeColor=#6D1F00;fontColor=#ffffff;" vertex="1" parent="1">
          <mxGeometry x="-6119" y="-437" width="240" height="120" as="geometry" />
        </mxCell>
        <mxCell id="KuhgU3IhYk45CycPE0S7-16" value="react-dom" style="rounded=1;whiteSpace=wrap;html=1;fillColor=#a0522d;fontSize=16;fontStyle=1;strokeWidth=4;strokeColor=#6D1F00;fontColor=#ffffff;" vertex="1" parent="1">
          <mxGeometry x="-5855" y="-439" width="240" height="120" as="geometry" />
        </mxCell>
        <mxCell id="KuhgU3IhYk45CycPE0S7-33" style="edgeStyle=orthogonalEdgeStyle;rounded=0;orthogonalLoop=1;jettySize=auto;html=1;entryX=0.25;entryY=0;entryDx=0;entryDy=0;" edge="1" parent="1" source="KuhgU3IhYk45CycPE0S7-23" target="KuhgU3IhYk45CycPE0S7-28">
          <mxGeometry relative="1" as="geometry" />
        </mxCell>
        <mxCell id="KuhgU3IhYk45CycPE0S7-39" style="edgeStyle=orthogonalEdgeStyle;rounded=0;orthogonalLoop=1;jettySize=auto;html=1;" edge="1" parent="1" source="KuhgU3IhYk45CycPE0S7-23" target="KuhgU3IhYk45CycPE0S7-35">
          <mxGeometry relative="1" as="geometry" />
        </mxCell>
        <mxCell id="KuhgU3IhYk45CycPE0S7-23" value="apw-root" style="rounded=1;whiteSpace=wrap;html=1;fillColor=#d5e8d4;fontStyle=1;fontSize=16;strokeColor=#82b366;" vertex="1" parent="1">
          <mxGeometry x="-6461" y="-841" width="340" height="120" as="geometry" />
        </mxCell>
        <mxCell id="KuhgU3IhYk45CycPE0S7-32" style="edgeStyle=orthogonalEdgeStyle;rounded=0;orthogonalLoop=1;jettySize=auto;html=1;" edge="1" parent="1" source="KuhgU3IhYk45CycPE0S7-24" target="KuhgU3IhYk45CycPE0S7-28">
          <mxGeometry relative="1" as="geometry" />
        </mxCell>
        <mxCell id="KuhgU3IhYk45CycPE0S7-44" style="edgeStyle=orthogonalEdgeStyle;rounded=0;orthogonalLoop=1;jettySize=auto;html=1;" edge="1" parent="1" source="KuhgU3IhYk45CycPE0S7-24" target="KuhgU3IhYk45CycPE0S7-40">
          <mxGeometry relative="1" as="geometry" />
        </mxCell>
        <mxCell id="KuhgU3IhYk45CycPE0S7-24" value="plataforma-tecnologica" style="rounded=1;whiteSpace=wrap;html=1;fillColor=#e1d5e7;fontStyle=1;fontSize=16;strokeColor=#9673a6;" vertex="1" parent="1">
          <mxGeometry x="-6037" y="-841" width="340" height="120" as="geometry" />
        </mxCell>
        <mxCell id="KuhgU3IhYk45CycPE0S7-34" style="edgeStyle=orthogonalEdgeStyle;rounded=0;orthogonalLoop=1;jettySize=auto;html=1;entryX=0.75;entryY=0;entryDx=0;entryDy=0;" edge="1" parent="1" source="KuhgU3IhYk45CycPE0S7-25" target="KuhgU3IhYk45CycPE0S7-28">
          <mxGeometry relative="1" as="geometry" />
        </mxCell>
        <mxCell id="KuhgU3IhYk45CycPE0S7-45" style="edgeStyle=orthogonalEdgeStyle;rounded=0;orthogonalLoop=1;jettySize=auto;html=1;" edge="1" parent="1" source="KuhgU3IhYk45CycPE0S7-25" target="KuhgU3IhYk45CycPE0S7-41">
          <mxGeometry relative="1" as="geometry" />
        </mxCell>
        <mxCell id="KuhgU3IhYk45CycPE0S7-25" value="plataforma-infraestrutura" style="rounded=1;whiteSpace=wrap;html=1;fillColor=#ffe6cc;fontStyle=1;fontSize=16;strokeColor=#d79b00;" vertex="1" parent="1">
          <mxGeometry x="-5613" y="-841" width="340" height="120" as="geometry" />
        </mxCell>
        <mxCell id="KuhgU3IhYk45CycPE0S7-29" value="shared scope (singleton)" style="text;html=1;align=center;verticalAlign=middle;whiteSpace=wrap;rounded=0;fontSize=32;fontStyle=1" vertex="1" parent="1">
          <mxGeometry x="-6428" y="-517" width="408" height="61" as="geometry" />
        </mxCell>
        <mxCell id="KuhgU3IhYk45CycPE0S7-35" value="" style="rounded=1;whiteSpace=wrap;html=1;fontStyle=1;fontSize=16;" vertex="1" parent="1">
          <mxGeometry x="-6497.5" y="-1607" width="413" height="700" as="geometry" />
        </mxCell>
        <mxCell id="KuhgU3IhYk45CycPE0S7-36" value="module scope" style="text;html=1;align=center;verticalAlign=middle;whiteSpace=wrap;rounded=0;fontSize=32;fontStyle=1" vertex="1" parent="1">
          <mxGeometry x="-6469" y="-1575" width="365" height="38" as="geometry" />
        </mxCell>
        <mxCell id="KuhgU3IhYk45CycPE0S7-41" value="" style="rounded=1;whiteSpace=wrap;html=1;fontStyle=1;fontSize=16;" vertex="1" parent="1">
          <mxGeometry x="-5651" y="-1607" width="1199" height="700" as="geometry" />
        </mxCell>
        <mxCell id="KuhgU3IhYk45CycPE0S7-42" value="module scope" style="text;html=1;align=center;verticalAlign=middle;whiteSpace=wrap;rounded=0;fontSize=32;fontStyle=1" vertex="1" parent="1">
          <mxGeometry x="-6044" y="-1575" width="354" height="38" as="geometry" />
        </mxCell>
        <mxCell id="KuhgU3IhYk45CycPE0S7-43" value="module scope" style="text;html=1;align=center;verticalAlign=middle;whiteSpace=wrap;rounded=0;fontSize=32;fontStyle=1" vertex="1" parent="1">
          <mxGeometry x="-5253" y="-1575" width="365" height="38" as="geometry" />
        </mxCell>
        <mxCell id="KuhgU3IhYk45CycPE0S7-47" value="" style="rounded=1;whiteSpace=wrap;html=1;fontStyle=1;fontSize=16;" vertex="1" parent="1">
          <mxGeometry x="-5616" y="-1513" width="1129" height="233" as="geometry" />
        </mxCell>
        <mxCell id="KuhgU3IhYk45CycPE0S7-48" value="local scope" style="text;html=1;align=center;verticalAlign=middle;whiteSpace=wrap;rounded=0;fontSize=24;fontStyle=1" vertex="1" parent="1">
          <mxGeometry x="-5591.5" y="-1490" width="162.5" height="38" as="geometry" />
        </mxCell>
        <mxCell id="KuhgU3IhYk45CycPE0S7-51" value="" style="rounded=1;whiteSpace=wrap;html=1;fontStyle=1;fontSize=16;" vertex="1" parent="1">
          <mxGeometry x="-5617.5" y="-1259" width="1130.5" height="314" as="geometry" />
        </mxCell>
        <mxCell id="KuhgU3IhYk45CycPE0S7-52" value="remote scope" style="text;html=1;align=center;verticalAlign=middle;whiteSpace=wrap;rounded=0;fontSize=24;fontStyle=1" vertex="1" parent="1">
          <mxGeometry x="-5594" y="-1236" width="170" height="38" as="geometry" />
        </mxCell>
        <mxCell id="KuhgU3IhYk45CycPE0S7-56" value="" style="rounded=1;whiteSpace=wrap;html=1;fontStyle=1;fontSize=16;" vertex="1" parent="1">
          <mxGeometry x="-6045" y="-1513" width="347" height="233" as="geometry" />
        </mxCell>
        <mxCell id="KuhgU3IhYk45CycPE0S7-55" value="local scope" style="text;html=1;align=center;verticalAlign=middle;whiteSpace=wrap;rounded=0;fontSize=24;fontStyle=1" vertex="1" parent="1">
          <mxGeometry x="-6022" y="-1490" width="309" height="38" as="geometry" />
        </mxCell>
        <mxCell id="KuhgU3IhYk45CycPE0S7-58" value="" style="rounded=1;whiteSpace=wrap;html=1;fontStyle=1;fontSize=16;" vertex="1" parent="1">
          <mxGeometry x="-6045" y="-1259" width="347" height="314" as="geometry" />
        </mxCell>
        <mxCell id="KuhgU3IhYk45CycPE0S7-57" value="remote scope" style="text;html=1;align=center;verticalAlign=middle;whiteSpace=wrap;rounded=0;fontSize=24;fontStyle=1" vertex="1" parent="1">
          <mxGeometry x="-6022" y="-1236" width="309" height="38" as="geometry" />
        </mxCell>
        <mxCell id="KuhgU3IhYk45CycPE0S7-60" value="" style="rounded=1;whiteSpace=wrap;html=1;fontStyle=1;fontSize=16;" vertex="1" parent="1">
          <mxGeometry x="-6462" y="-1513" width="347" height="233" as="geometry" />
        </mxCell>
        <mxCell id="KuhgU3IhYk45CycPE0S7-59" value="local scope" style="text;html=1;align=center;verticalAlign=middle;whiteSpace=wrap;rounded=0;fontSize=24;fontStyle=1" vertex="1" parent="1">
          <mxGeometry x="-6439" y="-1490" width="309" height="38" as="geometry" />
        </mxCell>
        <mxCell id="KuhgU3IhYk45CycPE0S7-62" value="" style="rounded=1;whiteSpace=wrap;html=1;fontStyle=1;fontSize=16;" vertex="1" parent="1">
          <mxGeometry x="-6462" y="-1259" width="347" height="314" as="geometry" />
        </mxCell>
        <mxCell id="KuhgU3IhYk45CycPE0S7-61" value="remote scope" style="text;html=1;align=center;verticalAlign=middle;whiteSpace=wrap;rounded=0;fontSize=24;fontStyle=1" vertex="1" parent="1">
          <mxGeometry x="-6439" y="-1236" width="309" height="38" as="geometry" />
        </mxCell>
        <mxCell id="KuhgU3IhYk45CycPE0S7-67" value="local packages" style="rounded=1;whiteSpace=wrap;html=1;fillColor=#ffff88;fontStyle=1;fontSize=16;strokeColor=#36393d;" vertex="1" parent="1">
          <mxGeometry x="-6405.5" y="-1411" width="229" height="82" as="geometry" />
        </mxCell>
        <mxCell id="KuhgU3IhYk45CycPE0S7-68" value="remote packages" style="rounded=1;whiteSpace=wrap;html=1;fillColor=#ffcc99;fontStyle=1;fontSize=16;strokeColor=#36393d;" vertex="1" parent="1">
          <mxGeometry x="-6405.5" y="-1113" width="229" height="82" as="geometry" />
        </mxCell>
        <mxCell id="KuhgU3IhYk45CycPE0S7-69" value="local packages" style="rounded=1;whiteSpace=wrap;html=1;fillColor=#ffff88;fontStyle=1;fontSize=16;strokeColor=#36393d;" vertex="1" parent="1">
          <mxGeometry x="-5985" y="-1411" width="229" height="82" as="geometry" />
        </mxCell>
        <mxCell id="KuhgU3IhYk45CycPE0S7-70" value="remote packages" style="rounded=1;whiteSpace=wrap;html=1;fillColor=#ffcc99;fontStyle=1;fontSize=16;strokeColor=#36393d;" vertex="1" parent="1">
          <mxGeometry x="-5985" y="-1113" width="229" height="82" as="geometry" />
        </mxCell>
        <mxCell id="KuhgU3IhYk45CycPE0S7-72" value="" style="rounded=1;whiteSpace=wrap;html=1;fontStyle=1;fontSize=16;" vertex="1" parent="1">
          <mxGeometry x="-5018" y="-1497" width="510" height="530" as="geometry" />
        </mxCell>
        <mxCell id="KuhgU3IhYk45CycPE0S7-17" value="react-router-dom" style="rounded=1;whiteSpace=wrap;html=1;fillColor=#cdeb8b;fontStyle=1;fontSize=16;strokeColor=#36393d;strokeWidth=3;" vertex="1" parent="1">
          <mxGeometry x="-4871" y="-1350" width="240" height="120" as="geometry" />
        </mxCell>
        <mxCell id="KuhgU3IhYk45CycPE0S7-18" value="react-query" style="rounded=1;whiteSpace=wrap;html=1;fillColor=#cdeb8b;fontStyle=1;fontSize=16;strokeColor=#36393d;strokeWidth=3;" vertex="1" parent="1">
          <mxGeometry x="-4871" y="-1166" width="240" height="120" as="geometry" />
        </mxCell>
        <mxCell id="KuhgU3IhYk45CycPE0S7-73" value="module shared scope" style="text;html=1;align=center;verticalAlign=middle;whiteSpace=wrap;rounded=0;fontSize=24;fontStyle=1" vertex="1" parent="1">
          <mxGeometry x="-4988" y="-1462" width="274" height="38" as="geometry" />
        </mxCell>
        <mxCell id="KuhgU3IhYk45CycPE0S7-74" value="local packages" style="rounded=1;whiteSpace=wrap;html=1;fillColor=#ffff88;fontStyle=1;fontSize=16;strokeColor=#36393d;" vertex="1" parent="1">
          <mxGeometry x="-5426" y="-1411" width="229" height="82" as="geometry" />
        </mxCell>
        <mxCell id="KuhgU3IhYk45CycPE0S7-75" value="remote packages" style="rounded=1;whiteSpace=wrap;html=1;fillColor=#ffcc99;fontStyle=1;fontSize=16;strokeColor=#36393d;" vertex="1" parent="1">
          <mxGeometry x="-5420" y="-1113" width="229" height="82" as="geometry" />
        </mxCell>
      </root>
    </mxGraphModel>
  </diagram>
</mxfile>
